<svg width="323" height="323" viewBox="0 0 323 323" fill="none" xmlns="http://www.w3.org/2000/svg">
<path d="M227.295 272.961C227.295 272.961 227.295 272.935 227.289 272.922C227.289 272.825 227.263 272.735 227.237 272.644C227.224 272.56 227.205 272.476 227.192 272.392C227.185 272.341 227.172 272.289 227.159 272.237C227.069 271.785 226.979 271.326 226.869 270.855C226.869 270.842 226.869 270.829 226.862 270.816C226.643 269.841 226.378 268.833 226.061 267.806C226.048 267.773 226.042 267.741 226.035 267.709C225.88 267.211 225.719 266.714 225.544 266.21C225.531 266.165 225.512 266.12 225.499 266.074C225.325 265.571 225.131 265.06 224.931 264.55C224.918 264.511 224.898 264.472 224.885 264.434C224.679 263.91 224.459 263.381 224.22 262.851C224.214 262.838 224.207 262.825 224.201 262.806C223.71 261.701 223.161 260.577 222.541 259.447C222.541 259.447 222.541 259.446 222.541 259.44C222.237 258.891 221.92 258.342 221.584 257.786C221.565 257.748 221.539 257.715 221.52 257.676C221.19 257.14 220.848 256.604 220.493 256.061C220.46 256.016 220.428 255.965 220.396 255.919C220.034 255.383 219.659 254.841 219.259 254.304C219.233 254.266 219.201 254.227 219.168 254.188C219.013 253.975 218.852 253.762 218.69 253.549C218.626 253.458 218.555 253.374 218.484 253.284C218.419 253.2 218.348 253.109 218.277 253.025C218.277 253.025 218.27 253.012 218.264 253.012C218.393 252.864 218.471 252.767 218.471 252.767C219.149 251.753 219.55 250.525 219.55 249.214C219.55 245.674 216.681 242.806 213.141 242.806C211.604 242.806 210.202 243.348 209.097 244.246L208.561 243.859C201.778 239.072 193.096 235.099 183.625 231.294L182.243 230.835L182.198 230.725H182.185L166.041 191.991C163.154 185.06 156.429 180.583 148.922 180.583H148.47V179.678C148.477 179.498 149.129 161.326 129.588 158.91C120.544 157.785 111.752 163.289 108.205 172.275C106.571 176.416 102.772 190.731 120.511 204.446L121.409 205.163L94.6519 270.467L94.5098 271.171C94.5098 285.622 105.453 310.086 146.468 310.086C187.482 310.086 198.425 285.629 198.425 271.171L198.29 270.467L183.529 233.955L184.937 234.42C193.335 237.87 200.99 241.488 207.037 245.725L207.56 246.107C207.043 247.03 206.746 248.09 206.746 249.227C206.746 252.767 209.614 255.635 213.154 255.635C214.272 255.635 215.325 255.344 216.242 254.841C216.242 254.841 216.352 254.782 216.526 254.673C216.591 254.757 216.655 254.841 216.72 254.925C216.785 255.008 216.856 255.099 216.92 255.183C217.037 255.338 217.166 255.493 217.282 255.648C217.301 255.68 217.327 255.706 217.347 255.738C217.728 256.255 218.09 256.766 218.432 257.282C218.458 257.321 218.49 257.366 218.516 257.405C218.858 257.915 219.188 258.426 219.498 258.936C219.517 258.968 219.543 259.007 219.562 259.04C219.879 259.563 220.183 260.08 220.467 260.596C220.467 260.596 220.473 260.609 220.48 260.616C221.068 261.682 221.591 262.741 222.062 263.781L222.075 263.813C222.301 264.317 222.508 264.815 222.708 265.312C222.721 265.351 222.741 265.383 222.754 265.422C222.947 265.907 223.122 266.385 223.29 266.856C223.303 266.901 223.322 266.94 223.335 266.985C223.503 267.463 223.658 267.928 223.8 268.4C223.807 268.432 223.82 268.458 223.826 268.491C224.123 269.466 224.382 270.422 224.595 271.346C224.698 271.798 224.789 272.237 224.873 272.67C224.879 272.709 224.885 272.748 224.892 272.78C224.905 272.851 224.918 272.916 224.931 272.98C224.931 272.98 224.931 272.987 224.931 272.993C224.931 273.646 225.46 274.182 226.119 274.182C226.778 274.182 227.308 273.652 227.308 272.993C227.308 272.98 227.308 272.974 227.308 272.961H227.295ZM121.39 202.088C105.634 189.536 108.974 176.849 110.434 173.154C113.586 165.182 121.351 160.305 129.303 161.28C146.655 163.425 146.119 178.91 146.086 179.569V180.583H144.019C136.513 180.583 129.788 185.06 126.9 191.991L122.378 202.844L121.39 202.088ZM196.597 271.165C196.597 284.938 186.042 308.252 146.474 308.252C106.907 308.252 96.3509 284.944 96.3509 271.171L121.687 209.278L122.96 206.229L123.392 205.189L123.47 205.002L123.903 203.962L125.259 200.706L128.599 192.695C131.203 186.449 137.262 182.411 144.026 182.411H148.935C155.705 182.411 161.758 186.449 164.362 192.695L176.952 222.909L179.821 229.789L180.408 231.197L180.512 231.449L181.1 232.864L182.799 236.94L196.604 271.165H196.597ZM215.641 254.072C214.42 254.02 213.451 253.025 213.451 251.798C213.451 251.727 213.464 251.662 213.471 251.598C213.471 251.539 213.477 251.481 213.49 251.43C213.503 251.352 213.522 251.281 213.542 251.21C213.542 251.21 213.542 251.204 213.542 251.197L213.8 251.488C214.143 251.856 214.472 252.218 214.795 252.586C214.827 252.618 214.853 252.651 214.885 252.689C215.279 253.142 215.661 253.587 216.029 254.039C216.029 254.046 216.042 254.052 216.048 254.059C216.048 254.059 216.055 254.072 216.061 254.072C215.822 254.091 215.648 254.078 215.648 254.078L215.641 254.072ZM217.986 252.14C217.986 252.14 217.973 252.282 217.883 252.521C217.805 252.424 217.721 252.328 217.644 252.231C217.644 252.231 217.637 252.218 217.631 252.218C217.334 251.856 217.03 251.494 216.714 251.139C216.668 251.087 216.623 251.036 216.578 250.984C216.261 250.622 215.938 250.26 215.602 249.905C215.59 249.886 215.57 249.873 215.557 249.853L215.299 249.569C215.37 249.556 215.435 249.543 215.506 249.537C215.551 249.537 215.59 249.524 215.635 249.524C215.667 249.524 215.699 249.517 215.725 249.517C216.985 249.517 218.012 250.538 218.012 251.804C218.012 251.921 217.993 252.037 217.98 252.147L217.986 252.14Z" fill="black"/>
<path d="M175.176 230.557L174.594 229.156L174.491 228.904L173.91 227.502L170.912 220.305L158.8 191.235L157.107 191.94L168.496 219.265L171.552 226.597L172.133 227.993L172.236 228.245L172.818 229.64L176.455 238.374L190.144 271.133V271.159C190.137 274.292 188.91 301.779 146.467 301.779C104.025 301.779 102.804 274.292 102.804 271.159H102.798L127.275 212.76L127.191 212.702L128.405 209.795L128.832 208.768L128.909 208.587L129.336 207.56L131.144 203.225L135.847 191.94L134.155 191.235L129.458 202.502L127.766 206.571L127.333 207.605L127.255 207.786L126.823 208.82L125.595 211.765L125.679 211.823L101.099 270.461L100.97 271.165C100.97 274.485 102.249 303.62 146.467 303.62C190.686 303.62 191.965 274.492 191.965 271.165L191.843 270.461L178.264 237.973L175.169 230.557H175.176Z" fill="black"/>
</svg>
