<svg width="323" height="323" viewBox="0 0 323 323" fill="none" xmlns="http://www.w3.org/2000/svg">
<path d="M146.965 187.598V289.505C146.965 294.447 142.663 298.452 137.353 298.452H55.485C50.1749 298.452 45.8726 294.447 45.8726 289.505V187.598" stroke="black" stroke-width="2.83" stroke-miterlimit="10"/>
<path d="M61.6284 298.452C66.9256 304.008 74.4838 310.08 82.8172 310.08H240.183C248.516 310.08 256.074 304.008 261.372 298.452" stroke="black" stroke-width="2.83" stroke-miterlimit="10"/>
<path d="M168.761 103.677H154.232V176.681H168.761V103.677Z" stroke="black" stroke-width="3.17" stroke-miterlimit="10"/>
<path d="M154.233 129.717C122.643 129.717 95.9311 102.52 98.4505 72.352C98.7089 69.122 99.2903 65.892 100.195 62.662L104.975 45.2846C105.75 42.5068 108.27 40.5688 111.177 40.5688H211.824C214.731 40.5688 217.25 42.5068 218.025 45.2846L222.806 62.662C223.71 65.892 224.291 69.122 224.55 72.352C227.069 102.52 200.357 129.717 168.768 129.717" stroke="black" stroke-width="2.83" stroke-miterlimit="10"/>
<path d="M53.7473 166.41C53.7473 155.957 55.0522 145.305 57.5716 134.891C63.9347 108.599 78.6506 85.0782 99.0642 67.3326L99.0836 67.3197" stroke="black" stroke-width="2.83" stroke-miterlimit="10"/>
<path d="M223.813 67.3132C243.678 84.4129 258.155 107.023 264.795 132.378C267.735 143.593 269.253 155.111 269.253 166.41" stroke="black" stroke-width="2.83" stroke-miterlimit="10"/>
<path d="M146.965 173.128V187.598C146.965 188.115 146.597 188.503 146.164 188.503H46.667C46.2342 188.503 45.866 188.115 45.866 187.598V173.128C45.866 169.446 48.6954 166.41 52.2549 166.41H140.57C144.071 166.41 146.959 169.446 146.959 173.128H146.965Z" stroke="black" stroke-width="2.83" stroke-miterlimit="10"/>
<path d="M176.035 187.598V289.505C176.035 294.447 180.337 298.452 185.647 298.452H267.515C272.825 298.452 277.127 294.447 277.127 289.505V187.598" stroke="black" stroke-width="2.83" stroke-miterlimit="10"/>
<path d="M176.035 173.128V187.598C176.035 188.115 176.403 188.503 176.836 188.503H276.333C276.766 188.503 277.134 188.115 277.134 187.598V173.128C277.134 169.446 274.304 166.41 270.745 166.41H182.43C178.929 166.41 176.041 169.446 176.041 173.128H176.035Z" stroke="black" stroke-width="2.83" stroke-miterlimit="10"/>
<path d="M185.835 40.5689H171.042C167.992 36.1502 164.633 33.5985 161.5 33.5985C158.367 33.5985 155.008 36.1502 151.959 40.5689H137.165C142.217 29.8776 149.982 20.1423 161.5 20.1423C173.018 20.1423 180.783 29.8776 185.835 40.5689Z" stroke="black" stroke-width="2.83" stroke-miterlimit="10"/>
<path d="M45.7949 188.503L17.4548 246.275L41.4473 259.595L45.8659 251.862" stroke="black" stroke-width="2.83" stroke-miterlimit="10"/>
<path d="M39.7484 258.652C39.7484 258.652 22.694 279.666 46.1568 279.666" stroke="black" stroke-width="2.83" stroke-miterlimit="10"/>
<path d="M20.7495 248.103C20.7495 248.103 -7.84891 295.261 48.5857 295.261" stroke="black" stroke-width="2.83" stroke-miterlimit="10"/>
<path d="M277.134 188.503L306.03 246.275L282.031 259.595L277.134 251.023" stroke="black" stroke-width="2.83" stroke-miterlimit="10"/>
<path d="M283.73 258.652C283.73 258.652 300.784 279.666 277.321 279.666" stroke="black" stroke-width="2.83" stroke-miterlimit="10"/>
<path d="M302.735 248.103C302.735 248.103 331.333 295.261 274.899 295.261" stroke="black" stroke-width="2.83" stroke-miterlimit="10"/>
</svg>
