<svg width="323" height="323" viewBox="0 0 323 323" fill="none" xmlns="http://www.w3.org/2000/svg">
<path d="M92.5459 220.422H249.769" stroke="black" stroke-width="2.83" stroke-miterlimit="10"/>
<path d="M104.129 215.17H125.66L129.109 213.283" stroke="black" stroke-width="2.83" stroke-miterlimit="10"/>
<path d="M108.315 217.347H97.8884V212.999H108.315" stroke="black" stroke-width="2.83" stroke-miterlimit="10"/>
<path d="M93.3923 197.011H238.439C246.979 197.011 253.91 203.942 253.91 212.482V305.093C253.91 307.845 251.675 310.08 248.923 310.08H93.3987C90.6468 310.08 88.4116 307.845 88.4116 305.093V202.004C88.4116 199.252 90.6468 197.017 93.3987 197.017L93.3923 197.011Z" stroke="black" stroke-width="2.83" stroke-miterlimit="10"/>
<path d="M88.3922 305.351C86.8806 305.351 84.4581 304.925 82.0743 302.716C74.4515 295.661 73.4761 273.348 73.4761 254.698C73.4761 236.048 74.4838 220.835 76.4735 211.933C77.2681 208.38 79.6777 197.573 88.4051 197.573V206.533C86.1571 206.533 81.0924 211.1 81.0924 254.698C81.0924 298.297 88.4051 296.398 88.4051 296.398L88.3922 305.358V305.351Z" stroke="black" stroke-width="2.83" stroke-miterlimit="10"/>
</svg>
