<svg width="323" height="323" viewBox="0 0 323 323" fill="none" xmlns="http://www.w3.org/2000/svg">
<path d="M107.081 126.706C71.3894 127.624 38.3724 154.478 33.8827 190.092L21.7831 285.945C20.1681 298.756 30.1488 310.08 43.0559 310.08H279.944C292.851 310.08 302.838 298.756 301.217 285.945L289.117 190.092C284.628 154.478 251.61 127.617 215.919 126.706" stroke="black" stroke-width="2.83" stroke-miterlimit="10"/>
<path d="M196.636 126.681H126.371" stroke="black" stroke-width="2.83" stroke-miterlimit="10"/>
<path d="M196.636 188.432H126.371" stroke="black" stroke-width="2.83" stroke-miterlimit="10"/>
<path d="M34.1089 188.432H107.081" stroke="black" stroke-width="2.83" stroke-miterlimit="10"/>
<path d="M215.926 188.432H288.891" stroke="black" stroke-width="2.83" stroke-miterlimit="10"/>
<path d="M107.081 143.89H126.371" stroke="black" stroke-width="2.83" stroke-miterlimit="10"/>
<path d="M107.081 126.681H126.371" stroke="black" stroke-width="2.83" stroke-miterlimit="10"/>
<path d="M107.081 126.681V126.706V155.873V202.999V310.08H126.371V202.999V155.873V126.681" stroke="black" stroke-width="2.83" stroke-miterlimit="10"/>
<path d="M196.636 143.89H215.926" stroke="black" stroke-width="2.83" stroke-miterlimit="10"/>
<path d="M196.636 126.681H215.926" stroke="black" stroke-width="2.83" stroke-miterlimit="10"/>
<path d="M196.636 126.681V126.706V155.873V202.999V310.08H215.926V202.999V155.873V126.681" stroke="black" stroke-width="2.83" stroke-miterlimit="10"/>
<path d="M126.377 126.706C126.377 126.706 124.781 86.8547 161.274 86.8547H161.72C198.212 86.8547 196.617 126.706 196.617 126.706" stroke="black" stroke-width="2.83" stroke-miterlimit="10"/>
<path d="M107.081 127.049C107.081 70.1362 161.306 70.1362 161.306 70.1362H161.694C161.694 70.1362 215.919 70.1362 215.919 127.049" stroke="black" stroke-width="2.83" stroke-miterlimit="10"/>
<path d="M161.5 225.919C166.085 225.919 169.801 222.203 169.801 217.618C169.801 213.033 166.085 209.317 161.5 209.317C156.916 209.317 153.199 213.033 153.199 217.618C153.199 222.203 156.916 225.919 161.5 225.919Z" stroke="black" stroke-width="2.83" stroke-miterlimit="10"/>
</svg>
