<svg width="323" height="323" viewBox="0 0 323 323" fill="none" xmlns="http://www.w3.org/2000/svg">
<path d="M108.606 306.824H104.536C100.466 306.824 97.2101 303.568 97.2101 299.499V216.985C97.2101 209.498 99.8135 202.256 104.613 196.558L140.822 153.509C140.983 153.347 141.229 153.186 141.474 153.264C141.719 153.264 141.881 153.347 142.042 153.509L157.598 171.061" stroke="black" stroke-width="2.77" stroke-miterlimit="10"/>
<path d="M164.284 171.552L180.951 153.515C181.113 153.354 181.274 153.27 181.52 153.27C181.765 153.186 182.011 153.354 182.172 153.515L218.38 196.565C223.18 202.263 225.784 209.504 225.784 216.991V299.505C225.784 303.575 222.528 306.831 218.458 306.831H214.388" stroke="black" stroke-width="2.77" stroke-miterlimit="10"/>
<path d="M214.388 244.983H108.605V310.08H214.388V244.983Z" stroke="black" stroke-width="2.77" stroke-miterlimit="10"/>
<path d="M216.83 220.57H106.164V244.983H216.83V220.57Z" stroke="black" stroke-width="2.77" stroke-miterlimit="10"/>
<path d="M216.836 220.57L182.676 163.037C181.901 161.849 180.241 161.532 179.045 162.34L161.5 177.476L142.217 161.649C140.99 160.77 139.226 161.125 138.477 162.398L106.17 220.564" stroke="black" stroke-width="2.77" stroke-miterlimit="10"/>
<path d="M175.331 175.001C176.904 175.001 178.18 173.726 178.18 172.153C178.18 170.579 176.904 169.304 175.331 169.304C173.757 169.304 172.482 170.579 172.482 172.153C172.482 173.726 173.757 175.001 175.331 175.001Z" stroke="black" stroke-width="2.77" stroke-miterlimit="10"/>
<path d="M144.265 175.001C145.838 175.001 147.114 173.726 147.114 172.153C147.114 170.579 145.838 169.304 144.265 169.304C142.691 169.304 141.416 170.579 141.416 172.153C141.416 173.726 142.691 175.001 144.265 175.001Z" stroke="black" stroke-width="2.77" stroke-miterlimit="10"/>
<path d="M161.5 168.942C158.128 168.942 155.395 171.674 155.395 175.047C155.395 178.419 158.128 181.151 161.5 181.151C164.872 181.151 167.605 178.419 167.605 175.047C167.605 171.674 164.872 168.942 161.5 168.942ZM161.5 179.523C160.376 179.523 159.465 178.613 159.465 177.488C159.465 176.364 160.376 175.454 161.5 175.454C162.624 175.454 163.535 176.364 163.535 177.488C163.535 178.613 162.624 179.523 161.5 179.523Z" fill="black"/>
<path d="M161.5 109.019C210.286 109.019 224.278 178.535 225.783 187.792L216.21 189.356C215.667 185.99 202.96 118.715 161.5 118.715C120.04 118.715 107.333 185.208 106.79 188.574L97.2166 187.011C98.7217 177.753 112.721 109.019 161.5 109.019Z" stroke="black" stroke-width="2.77" stroke-miterlimit="10"/>
<path d="M161.5 179.523C162.624 179.523 163.535 178.612 163.535 177.488C163.535 176.365 162.624 175.454 161.5 175.454C160.376 175.454 159.465 176.365 159.465 177.488C159.465 178.612 160.376 179.523 161.5 179.523Z" fill="white"/>
<path d="M160.57 177.488C160.57 177.488 152.34 225.583 152.34 303.891" stroke="black" stroke-width="2.77" stroke-miterlimit="10"/>
<path d="M162.443 177.488C162.443 177.488 170.673 225.583 170.673 303.891" stroke="black" stroke-width="2.77" stroke-miterlimit="10"/>
<path d="M152.34 298.962C152.886 298.962 153.328 298.52 153.328 297.974C153.328 297.428 152.886 296.986 152.34 296.986C151.794 296.986 151.351 297.428 151.351 297.974C151.351 298.52 151.794 298.962 152.34 298.962Z" stroke="black" stroke-width="2.77" stroke-miterlimit="10"/>
<path d="M152.34 300.933C152.886 300.933 153.328 300.49 153.328 299.944C153.328 299.398 152.886 298.956 152.34 298.956C151.794 298.956 151.351 299.398 151.351 299.944C151.351 300.49 151.794 300.933 152.34 300.933Z" stroke="black" stroke-width="2.77" stroke-miterlimit="10"/>
<path d="M170.673 298.962C171.219 298.962 171.662 298.52 171.662 297.974C171.662 297.428 171.219 296.986 170.673 296.986C170.127 296.986 169.685 297.428 169.685 297.974C169.685 298.52 170.127 298.962 170.673 298.962Z" stroke="black" stroke-width="2.77" stroke-miterlimit="10"/>
<path d="M170.673 300.933C171.219 300.933 171.662 300.49 171.662 299.944C171.662 299.398 171.219 298.956 170.673 298.956C170.127 298.956 169.685 299.398 169.685 299.944C169.685 300.49 170.127 300.933 170.673 300.933Z" stroke="black" stroke-width="2.77" stroke-miterlimit="10"/>
</svg>
