<svg width="323" height="323" viewBox="0 0 323 323" fill="none" xmlns="http://www.w3.org/2000/svg">
<path d="M161.907 191.701C135.486 191.701 119.717 167.605 115.854 154.504C112.992 144.794 114.549 131.836 115.744 129.019C120.75 117.268 133.063 93.7669 161.442 93.7669" stroke="black" stroke-width="2.83" stroke-miterlimit="10"/>
<path d="M160.111 191.701C186.532 191.701 202.301 167.605 206.164 154.504C209.026 144.794 208.135 131.836 206.933 129.019C201.927 117.268 188.955 93.7669 160.576 93.7669V119.432" stroke="black" stroke-width="2.83" stroke-miterlimit="10"/>
<path d="M142.333 138.541C144.181 138.541 145.679 137.043 145.679 135.195C145.679 133.347 144.181 131.849 142.333 131.849C140.485 131.849 138.987 133.347 138.987 135.195C138.987 137.043 140.485 138.541 142.333 138.541Z" stroke="black" stroke-width="2.83" stroke-miterlimit="10"/>
<path d="M179.95 138.541C181.798 138.541 183.296 137.043 183.296 135.195C183.296 133.347 181.798 131.849 179.95 131.849C178.102 131.849 176.604 133.347 176.604 135.195C176.604 137.043 178.102 138.541 179.95 138.541Z" stroke="black" stroke-width="2.83" stroke-miterlimit="10"/>
<path d="M161.713 186.868C166.571 186.868 185.195 181.158 185.195 159.562C185.195 137.966 164.788 136.713 161.158 136.842C157.521 136.713 137.12 136.991 137.12 159.562C137.12 182.133 155.641 186.868 160.602 186.868H161.72H161.713Z" stroke="black" stroke-width="2.83" stroke-miterlimit="10"/>
<path d="M161.151 146.648C149.426 146.648 152.482 151.791 152.482 151.791C154.865 155.324 157.54 157.346 159.278 158.399C160.434 159.097 161.862 159.097 163.018 158.399C164.756 157.353 167.43 155.324 169.814 151.791C169.814 151.791 172.87 146.648 161.145 146.648H161.151Z" stroke="black" stroke-width="2.83" stroke-miterlimit="10"/>
<path d="M161.151 170.124V153.541" stroke="black" stroke-width="2.83" stroke-miterlimit="10"/>
<path d="M136.235 100.718C136.235 100.718 120.718 80.8921 108.903 96.3186C97.0939 111.745 91.6869 127.895 114.394 134.4" stroke="black" stroke-width="2.83" stroke-miterlimit="10"/>
<path d="M185.886 100.718C185.886 100.718 201.403 80.8921 213.219 96.3186C225.028 111.745 230.435 127.895 207.728 134.4" stroke="black" stroke-width="2.83" stroke-miterlimit="10"/>
<path d="M161.093 284.053C155.376 283.781 150.479 282.638 146.306 280.81" stroke="black" stroke-width="2.83" stroke-miterlimit="10"/>
<path d="M133.212 180.667C133.212 180.667 133.179 180.777 133.108 180.977C132.856 181.739 132.772 181.991 131.9 185.163C129.936 192.172 126.919 204.278 125.33 217.663C125.33 217.715 125.33 217.792 125.311 217.844V217.986C125.292 218.148 125.279 218.258 125.259 218.329" stroke="black" stroke-width="2.83" stroke-miterlimit="10"/>
<path d="M125.253 218.432C125.253 218.432 125.253 218.393 125.272 218.322C125.272 218.122 125.324 217.741 125.337 217.528" stroke="black" stroke-width="2.83" stroke-miterlimit="10"/>
<path d="M125.35 217.385C125.35 217.385 125.35 217.437 125.331 217.528C125.35 217.566 125.331 217.599 125.331 217.657" stroke="black" stroke-width="2.83" stroke-miterlimit="10"/>
<path d="M125.318 217.857V217.838M125.318 217.838C125.337 217.786 125.337 217.708 125.337 217.657M125.318 217.838V217.98" stroke="black" stroke-width="2.83" stroke-miterlimit="10"/>
<path d="M134.019 280.319C131.138 284.647 126.506 291.01 120.776 297.076V297.095C117.772 300.248 114.258 303.019 110.97 306.01C108.941 307.858 106.344 309.124 103.444 309.705C103.412 309.725 103.36 309.725 103.328 309.744" stroke="black" stroke-width="2.83" stroke-miterlimit="10"/>
<path d="M104.516 250.067C102.255 245.39 97.2553 237.877 88.4568 237.877C73.2823 237.877 69.0251 249.563 73.6182 280.035C77.2423 304.072 92.3264 311.902 103.321 309.744C103.354 309.725 103.405 309.725 103.438 309.705C123.321 304.415 105.983 253.71 105.983 253.71C105.983 253.71 105.679 252.735 105.046 251.249V251.229C104.859 250.848 104.697 250.448 104.51 250.073" stroke="black" stroke-width="2.83" stroke-miterlimit="10"/>
<path d="M125.317 217.857V217.986C125.602 250.887 141.345 256.21 143.69 260.797C148.179 269.582 149.29 277.425 146.306 280.816C144.245 283.174 140.221 283.407 134.019 280.325C131.183 278.949 127.901 276.863 124.129 273.982C116.202 267.948 109.342 260.267 105.052 251.249C105.072 251.229 105.052 251.229 105.052 251.229C98.6958 237.767 98.095 221.281 108.302 202.586C118.56 183.781 131.907 185.157 131.907 185.157" stroke="black" stroke-width="2.83" stroke-miterlimit="10"/>
<path d="M176.694 280.81C172.521 282.638 167.624 283.781 161.907 284.053" stroke="black" stroke-width="2.83" stroke-miterlimit="10"/>
<path d="M197.734 218.329C197.715 218.258 197.702 218.148 197.683 217.986V217.844C197.663 217.792 197.663 217.715 197.663 217.663C196.068 204.278 193.051 192.172 191.093 185.163C190.221 181.991 190.098 181.894 189.847 181.132C189.782 180.932 189.743 180.822 189.743 180.822" stroke="black" stroke-width="2.83" stroke-miterlimit="10"/>
<path d="M197.663 217.528C197.682 217.747 197.728 218.128 197.728 218.322C197.747 218.393 197.747 218.432 197.747 218.432" stroke="black" stroke-width="2.83" stroke-miterlimit="10"/>
<path d="M197.663 217.657C197.663 217.605 197.644 217.566 197.663 217.528C197.644 217.437 197.644 217.398 197.644 217.385" stroke="black" stroke-width="2.83" stroke-miterlimit="10"/>
<path d="M197.682 217.98V217.838M197.682 217.838C197.663 217.786 197.663 217.708 197.663 217.657M197.682 217.838V217.857" stroke="black" stroke-width="2.83" stroke-miterlimit="10"/>
<path d="M219.679 309.738C219.646 309.718 219.595 309.718 219.562 309.699C216.662 309.117 214.065 307.851 212.037 306.004C208.748 303.013 205.228 300.241 202.23 297.089V297.07C196.494 291.004 191.868 284.641 188.987 280.312" stroke="black" stroke-width="2.83" stroke-miterlimit="10"/>
<path d="M218.484 250.067C218.296 250.448 218.135 250.848 217.947 251.223V251.242C217.308 252.728 217.011 253.704 217.011 253.704C217.011 253.704 199.679 304.408 219.556 309.699C219.588 309.718 219.64 309.718 219.672 309.738C230.667 311.895 245.758 304.066 249.375 280.028C253.968 249.556 249.711 237.87 234.537 237.87C225.738 237.87 220.738 245.39 218.477 250.06" stroke="black" stroke-width="2.83" stroke-miterlimit="10"/>
<path d="M191.093 185.157C191.093 185.157 204.44 183.781 214.698 202.586C224.905 221.281 224.304 237.767 217.948 251.229C217.948 251.229 217.928 251.229 217.948 251.249C213.658 260.273 206.798 267.954 198.871 273.982C195.099 276.863 191.81 278.943 188.981 280.325C182.779 283.407 178.755 283.168 176.694 280.816C173.709 277.431 174.814 269.582 179.31 260.797C181.655 256.217 197.398 250.887 197.683 217.986V217.857" stroke="black" stroke-width="2.83" stroke-miterlimit="10"/>
<path d="M161.907 191.701V284.053" stroke="black" stroke-width="2.83" stroke-miterlimit="10"/>
</svg>
