<svg width="323" height="323" viewBox="0 0 323 323" fill="none" xmlns="http://www.w3.org/2000/svg">
<path d="M245.118 306.178V203.445C245.118 194.549 238.206 187.34 229.679 187.34H100.498C91.971 187.34 85.0588 194.549 85.0588 203.445V306.178" stroke="black" stroke-width="2.83" stroke-miterlimit="10"/>
<path d="M85.0588 306.178C85.0588 308.336 86.7255 310.08 88.7798 310.08H241.397C243.452 310.08 245.118 308.336 245.118 306.178" stroke="black" stroke-width="2.83" stroke-miterlimit="10"/>
<path d="M79.852 288.316L81.2926 268.051L79.7422 264.679" stroke="black" stroke-width="2.83" stroke-miterlimit="10"/>
<path d="M81.9838 284.363V294.208H77.8817V284.363" stroke="black" stroke-width="2.83" stroke-miterlimit="10"/>
<path d="M206.617 221.139H123.567C120.776 221.139 118.186 219.685 116.732 217.295L113.715 212.347C113.011 211.184 111.745 210.48 110.388 210.48H105.556C104.471 210.48 103.599 211.358 103.599 212.437V284.059C103.599 286.223 105.35 287.974 107.514 287.974H222.663C224.827 287.974 226.578 286.223 226.578 284.059V212.437C226.578 211.352 225.699 210.48 224.621 210.48H219.789C218.432 210.48 217.172 211.19 216.462 212.347L213.451 217.295C211.998 219.679 209.407 221.139 206.617 221.139Z" stroke="black" stroke-width="2.83" stroke-miterlimit="10"/>
<path d="M223.645 209.595V208.064C223.645 206.991 222.773 206.119 221.701 206.119H108.47C107.397 206.119 106.525 206.991 106.525 208.064V209.595" stroke="black" stroke-width="2.83" stroke-miterlimit="10"/>
</svg>
