<svg width="323" height="323" viewBox="0 0 323 323" fill="none" xmlns="http://www.w3.org/2000/svg">
<path d="M161.5 192.017H78.4308C71.5316 192.017 65.892 197.831 65.892 204.937V296.004C65.892 297.903 66.3442 299.776 67.2163 301.54C67.9333 302.993 69.4385 303.885 71.06 303.885H73.56" stroke="black" stroke-width="2.83" stroke-miterlimit="10"/>
<path d="M161.5 211.739H73.5536" stroke="black" stroke-width="2.83" stroke-miterlimit="10"/>
<path d="M249.446 228.535H73.5536" stroke="black" stroke-width="2.83" stroke-miterlimit="10"/>
<path d="M161.5 200.757H241.682C245.958 200.757 249.434 204.239 249.434 208.509V210.816V232.56V303.878C249.434 307.302 246.656 310.08 243.232 310.08H159.73H79.7423C76.3185 310.08 73.5406 307.302 73.5406 303.878V232.56V210.816V208.509C73.5406 204.233 77.0291 200.757 81.2991 200.757H161.481" stroke="black" stroke-width="2.83" stroke-miterlimit="10"/>
<path d="M161.5 192.017H169.646H244.569C251.468 192.017 257.108 197.831 257.108 204.937V210.816V212.734V296.004C257.108 297.903 256.656 299.776 255.784 301.54C255.067 302.993 253.561 303.885 251.94 303.885H249.44" stroke="black" stroke-width="2.83" stroke-miterlimit="10"/>
<path d="M161.5 211.739H249.446" stroke="black" stroke-width="2.83" stroke-miterlimit="10"/>
<path d="M161.5 106.357C91.2604 106.357 77.436 192.023 77.436 192.023H94.568C94.568 192.023 106.37 123.399 161.5 123.399C216.63 123.399 228.432 192.023 228.432 192.023H245.564C245.564 192.023 231.74 106.357 161.5 106.357Z" stroke="black" stroke-width="2.83" stroke-miterlimit="10"/>
<path d="M161.5 228.535V310.08" stroke="black" stroke-width="2.83" stroke-miterlimit="10"/>
</svg>
