<svg width="323" height="323" viewBox="0 0 323 323" fill="none" xmlns="http://www.w3.org/2000/svg">
<path d="M267.857 133.489H55.1426" stroke="black" stroke-width="2.83" stroke-miterlimit="10"/>
<path d="M73.095 157.217V294.531C73.095 295.377 73.5278 296.062 74.064 296.062H164.452H248.93C249.466 296.062 249.899 295.377 249.899 294.531V157.217" stroke="black" stroke-width="2.83" stroke-miterlimit="10"/>
<path d="M185.576 117.307H137.437H116.429H58.463C56.6025 117.307 55.1426 118.838 55.1426 120.628V296.85C55.1426 304.163 61.0599 310.08 68.4373 310.08H254.563C261.94 310.08 267.857 304.163 267.857 296.85V120.634C267.857 118.838 266.398 117.314 264.537 117.314H185.583L185.576 117.307Z" stroke="black" stroke-width="2.83" stroke-miterlimit="10"/>
<path d="M267.857 157.217H55.1426" stroke="black" stroke-width="2.83" stroke-miterlimit="10"/>
<path d="M161.5 133.489V157.495" stroke="black" stroke-width="2.83" stroke-miterlimit="10"/>
<path d="M135.44 117.307L137.637 61.7382C139.232 49.7743 149.4 40.866 161.5 40.866C167.547 40.866 173.135 43.127 177.385 46.8479C181.642 50.5689 184.562 55.7563 185.363 61.7382L187.56 117.307" stroke="black" stroke-width="2.83" stroke-miterlimit="10"/>
<path d="M204.666 116.635L202.443 60.2653L202.34 59.4772C199.627 39.1088 182.069 23.7469 161.506 23.7469C140.944 23.7469 123.392 39.1088 120.673 59.4772L120.569 60.2653L118.347 116.635" stroke="black" stroke-width="2.83" stroke-miterlimit="10"/>
<path d="M161.506 157.217V296.068" stroke="black" stroke-width="2.83" stroke-miterlimit="10"/>
</svg>
